<mxfile host="app.diagrams.net" modified="2020-11-30T06:34:33.989Z" agent="5.0 (Macintosh; Intel Mac OS X 10_15_5) AppleWebKit/537.36 (KHTML, like Gecko) Chrome/86.0.4240.198 Safari/537.36" etag="Plu4uSNmlyk0cineBHwE" version="13.10.4" type="github">
  <diagram id="XcMRb35DJU4ZZfYQA-H8" name="Page-1">
    <mxGraphModel dx="395" dy="279" grid="1" gridSize="10" guides="1" tooltips="1" connect="1" arrows="1" fold="1" page="1" pageScale="1" pageWidth="1169" pageHeight="1654" math="0" shadow="0">
      <root>
        <mxCell id="0" />
        <mxCell id="1" parent="0" />
        <mxCell id="A9nfLYXC9H3s4k9YMPaL-6" value="cj-i18n" style="rounded=1;whiteSpace=wrap;html=1;" vertex="1" parent="1">
          <mxGeometry x="814" y="120" width="120" height="70" as="geometry" />
        </mxCell>
        <mxCell id="A9nfLYXC9H3s4k9YMPaL-7" value="翻译上报" style="ellipse;whiteSpace=wrap;html=1;" vertex="1" parent="1">
          <mxGeometry x="834" y="250" width="80" height="60" as="geometry" />
        </mxCell>
        <mxCell id="A9nfLYXC9H3s4k9YMPaL-8" value="翻译拉取" style="ellipse;whiteSpace=wrap;html=1;" vertex="1" parent="1">
          <mxGeometry x="980" y="240" width="70" height="60" as="geometry" />
        </mxCell>
        <mxCell id="A9nfLYXC9H3s4k9YMPaL-9" value="翻译提取" style="ellipse;whiteSpace=wrap;html=1;" vertex="1" parent="1">
          <mxGeometry x="700" y="240" width="70" height="60" as="geometry" />
        </mxCell>
        <mxCell id="A9nfLYXC9H3s4k9YMPaL-11" value="" style="shape=flexArrow;endArrow=classic;html=1;exitX=0;exitY=1;exitDx=0;exitDy=0;" edge="1" parent="1" source="A9nfLYXC9H3s4k9YMPaL-6">
          <mxGeometry width="50" height="50" relative="1" as="geometry">
            <mxPoint x="780" y="230" as="sourcePoint" />
            <mxPoint x="758" y="240" as="targetPoint" />
          </mxGeometry>
        </mxCell>
        <mxCell id="A9nfLYXC9H3s4k9YMPaL-12" value="" style="shape=flexArrow;endArrow=classic;html=1;exitX=0;exitY=1;exitDx=0;exitDy=0;" edge="1" parent="1">
          <mxGeometry width="50" height="50" relative="1" as="geometry">
            <mxPoint x="873" y="190" as="sourcePoint" />
            <mxPoint x="873.4200000000001" y="240" as="targetPoint" />
          </mxGeometry>
        </mxCell>
        <mxCell id="A9nfLYXC9H3s4k9YMPaL-13" value="" style="shape=flexArrow;endArrow=classic;html=1;" edge="1" parent="1">
          <mxGeometry width="50" height="50" relative="1" as="geometry">
            <mxPoint x="934" y="190" as="sourcePoint" />
            <mxPoint x="990" y="230" as="targetPoint" />
          </mxGeometry>
        </mxCell>
        <mxCell id="A9nfLYXC9H3s4k9YMPaL-15" value="根据最近一次的翻译词提取页面路径等信息" style="ellipse;whiteSpace=wrap;html=1;" vertex="1" parent="1">
          <mxGeometry x="826" y="420" width="96" height="90" as="geometry" />
        </mxCell>
        <mxCell id="A9nfLYXC9H3s4k9YMPaL-17" value="将提取后的翻译词上报到服务端" style="ellipse;whiteSpace=wrap;html=1;" vertex="1" parent="1">
          <mxGeometry x="826" y="620" width="96" height="80" as="geometry" />
        </mxCell>
        <mxCell id="A9nfLYXC9H3s4k9YMPaL-18" value="拉取本地兜底数据到静态资源目录" style="ellipse;whiteSpace=wrap;html=1;" vertex="1" parent="1">
          <mxGeometry x="1280" y="290" width="100" height="80" as="geometry" />
        </mxCell>
        <mxCell id="A9nfLYXC9H3s4k9YMPaL-19" value="获取当前页面翻译词" style="ellipse;whiteSpace=wrap;html=1;" vertex="1" parent="1">
          <mxGeometry x="1420" y="340" width="100" height="80" as="geometry" />
        </mxCell>
        <mxCell id="A9nfLYXC9H3s4k9YMPaL-20" value="本地兜底数据" style="ellipse;whiteSpace=wrap;html=1;" vertex="1" parent="1">
          <mxGeometry x="1500" y="480" width="100" height="80" as="geometry" />
        </mxCell>
        <mxCell id="A9nfLYXC9H3s4k9YMPaL-21" value="服务端翻译数据" style="ellipse;whiteSpace=wrap;html=1;" vertex="1" parent="1">
          <mxGeometry x="1580" y="370" width="100" height="80" as="geometry" />
        </mxCell>
        <mxCell id="A9nfLYXC9H3s4k9YMPaL-22" value="开发环境" style="ellipse;whiteSpace=wrap;html=1;" vertex="1" parent="1">
          <mxGeometry x="1050" y="360" width="70" height="70" as="geometry" />
        </mxCell>
        <mxCell id="A9nfLYXC9H3s4k9YMPaL-23" value="生产环境" style="ellipse;whiteSpace=wrap;html=1;" vertex="1" parent="1">
          <mxGeometry x="1140" y="250" width="70" height="60" as="geometry" />
        </mxCell>
        <mxCell id="A9nfLYXC9H3s4k9YMPaL-24" value="使用本地翻译词" style="ellipse;whiteSpace=wrap;html=1;" vertex="1" parent="1">
          <mxGeometry x="1140" y="470" width="90" height="80" as="geometry" />
        </mxCell>
        <mxCell id="A9nfLYXC9H3s4k9YMPaL-25" value="页面渲染" style="ellipse;whiteSpace=wrap;html=1;" vertex="1" parent="1">
          <mxGeometry x="1700" y="510" width="100" height="80" as="geometry" />
        </mxCell>
        <mxCell id="A9nfLYXC9H3s4k9YMPaL-27" value="" style="shape=flexArrow;endArrow=classic;html=1;" edge="1" parent="1">
          <mxGeometry width="50" height="50" relative="1" as="geometry">
            <mxPoint x="1035" y="300" as="sourcePoint" />
            <mxPoint x="1055" y="360" as="targetPoint" />
          </mxGeometry>
        </mxCell>
        <mxCell id="A9nfLYXC9H3s4k9YMPaL-28" value="" style="shape=flexArrow;endArrow=classic;html=1;" edge="1" parent="1">
          <mxGeometry width="50" height="50" relative="1" as="geometry">
            <mxPoint x="1060" y="270.0000000000002" as="sourcePoint" />
            <mxPoint x="1130" y="290.0000000000002" as="targetPoint" />
          </mxGeometry>
        </mxCell>
        <mxCell id="A9nfLYXC9H3s4k9YMPaL-29" value="" style="shape=flexArrow;endArrow=classic;html=1;" edge="1" parent="1">
          <mxGeometry width="50" height="50" relative="1" as="geometry">
            <mxPoint x="1120" y="430.0000000000002" as="sourcePoint" />
            <mxPoint x="1150" y="470" as="targetPoint" />
          </mxGeometry>
        </mxCell>
        <mxCell id="A9nfLYXC9H3s4k9YMPaL-30" value="" style="shape=flexArrow;endArrow=classic;html=1;" edge="1" parent="1">
          <mxGeometry width="50" height="50" relative="1" as="geometry">
            <mxPoint x="1220" y="290.0000000000002" as="sourcePoint" />
            <mxPoint x="1270" y="310" as="targetPoint" />
          </mxGeometry>
        </mxCell>
        <mxCell id="A9nfLYXC9H3s4k9YMPaL-31" value="" style="shape=flexArrow;endArrow=classic;html=1;exitX=1;exitY=0.625;exitDx=0;exitDy=0;exitPerimeter=0;width=12.941176470588236;endSize=6.223529411764706;" edge="1" parent="1" source="A9nfLYXC9H3s4k9YMPaL-18">
          <mxGeometry width="50" height="50" relative="1" as="geometry">
            <mxPoint x="1390" y="350.0000000000002" as="sourcePoint" />
            <mxPoint x="1420" y="360" as="targetPoint" />
          </mxGeometry>
        </mxCell>
        <mxCell id="A9nfLYXC9H3s4k9YMPaL-32" value="" style="shape=flexArrow;endArrow=classic;html=1;" edge="1" parent="1">
          <mxGeometry width="50" height="50" relative="1" as="geometry">
            <mxPoint x="1530" y="390.0000000000002" as="sourcePoint" />
            <mxPoint x="1570" y="410" as="targetPoint" />
          </mxGeometry>
        </mxCell>
        <mxCell id="A9nfLYXC9H3s4k9YMPaL-33" value="" style="shape=flexArrow;endArrow=classic;html=1;" edge="1" parent="1">
          <mxGeometry width="50" height="50" relative="1" as="geometry">
            <mxPoint x="1680" y="450.0000000000002" as="sourcePoint" />
            <mxPoint x="1710" y="490" as="targetPoint" />
          </mxGeometry>
        </mxCell>
        <mxCell id="A9nfLYXC9H3s4k9YMPaL-34" value="" style="shape=flexArrow;endArrow=classic;html=1;" edge="1" parent="1">
          <mxGeometry width="50" height="50" relative="1" as="geometry">
            <mxPoint x="1490" y="430.0000000000002" as="sourcePoint" />
            <mxPoint x="1510" y="470" as="targetPoint" />
          </mxGeometry>
        </mxCell>
        <mxCell id="A9nfLYXC9H3s4k9YMPaL-36" value="" style="shape=flexArrow;endArrow=classic;html=1;" edge="1" parent="1">
          <mxGeometry width="50" height="50" relative="1" as="geometry">
            <mxPoint x="1615" y="540.0000000000002" as="sourcePoint" />
            <mxPoint x="1670" y="550" as="targetPoint" />
          </mxGeometry>
        </mxCell>
        <mxCell id="A9nfLYXC9H3s4k9YMPaL-37" value="" style="endArrow=classic;html=1;" edge="1" parent="1">
          <mxGeometry width="50" height="50" relative="1" as="geometry">
            <mxPoint x="1230" y="550" as="sourcePoint" />
            <mxPoint x="1710" y="610" as="targetPoint" />
            <Array as="points">
              <mxPoint x="1470" y="790" />
            </Array>
          </mxGeometry>
        </mxCell>
        <mxCell id="A9nfLYXC9H3s4k9YMPaL-39" value="" style="shape=flexArrow;endArrow=classic;html=1;exitX=0;exitY=1;exitDx=0;exitDy=0;" edge="1" parent="1">
          <mxGeometry width="50" height="50" relative="1" as="geometry">
            <mxPoint x="873.5" y="330" as="sourcePoint" />
            <mxPoint x="874" y="400" as="targetPoint" />
          </mxGeometry>
        </mxCell>
        <mxCell id="A9nfLYXC9H3s4k9YMPaL-40" value="" style="shape=flexArrow;endArrow=classic;html=1;exitX=0;exitY=1;exitDx=0;exitDy=0;" edge="1" parent="1">
          <mxGeometry width="50" height="50" relative="1" as="geometry">
            <mxPoint x="873.5" y="530" as="sourcePoint" />
            <mxPoint x="874" y="600" as="targetPoint" />
          </mxGeometry>
        </mxCell>
        <mxCell id="A9nfLYXC9H3s4k9YMPaL-41" value="使用正则等方式提取页面中所有中文信息" style="ellipse;whiteSpace=wrap;html=1;" vertex="1" parent="1">
          <mxGeometry x="530" y="300" width="90" height="90" as="geometry" />
        </mxCell>
        <mxCell id="A9nfLYXC9H3s4k9YMPaL-42" value="将提取出来的中文翻译成英文，并加上页面路径信息" style="ellipse;whiteSpace=wrap;html=1;" vertex="1" parent="1">
          <mxGeometry x="350" y="390" width="100" height="90" as="geometry" />
        </mxCell>
        <mxCell id="A9nfLYXC9H3s4k9YMPaL-43" value="将提取的信息储存到json文件中" style="ellipse;whiteSpace=wrap;html=1;" vertex="1" parent="1">
          <mxGeometry x="140" y="480" width="100" height="90" as="geometry" />
        </mxCell>
        <mxCell id="A9nfLYXC9H3s4k9YMPaL-44" value="" style="shape=flexArrow;endArrow=classic;html=1;exitX=0;exitY=1;exitDx=0;exitDy=0;" edge="1" parent="1">
          <mxGeometry width="50" height="50" relative="1" as="geometry">
            <mxPoint x="696" y="290" as="sourcePoint" />
            <mxPoint x="630" y="330" as="targetPoint" />
          </mxGeometry>
        </mxCell>
        <mxCell id="A9nfLYXC9H3s4k9YMPaL-45" value="" style="shape=flexArrow;endArrow=classic;html=1;exitX=0;exitY=1;exitDx=0;exitDy=0;" edge="1" parent="1">
          <mxGeometry width="50" height="50" relative="1" as="geometry">
            <mxPoint x="526" y="370" as="sourcePoint" />
            <mxPoint x="460" y="410" as="targetPoint" />
          </mxGeometry>
        </mxCell>
        <mxCell id="A9nfLYXC9H3s4k9YMPaL-46" value="" style="shape=flexArrow;endArrow=classic;html=1;" edge="1" parent="1">
          <mxGeometry width="50" height="50" relative="1" as="geometry">
            <mxPoint x="340" y="470" as="sourcePoint" />
            <mxPoint x="260" y="500" as="targetPoint" />
          </mxGeometry>
        </mxCell>
      </root>
    </mxGraphModel>
  </diagram>
</mxfile>
